<svg version="1.1" id="Layer_1" xmlns="http://www.w3.org/2000/svg" xmlns:xlink="http://www.w3.org/1999/xlink" x="0px" y="0px"
	 width="100%" viewBox="0 0 500 500" enable-background="new 0 0 500 500" xml:space="preserve">
<path fill="#000000" opacity="1.000000" stroke="none" 
	d="
M248.000000,501.000000 
	C165.333359,501.000000 83.166702,501.000000 1.000044,501.000000 
	C1.000029,334.333405 1.000029,167.666779 1.000015,1.000134 
	C167.666565,1.000089 334.333130,1.000089 500.999756,1.000045 
	C500.999847,167.666519 500.999847,334.333038 500.999939,500.999786 
	C416.833344,501.000000 332.666656,501.000000 248.000000,501.000000 
M306.775085,202.237930 
	C306.775085,202.237930 306.865173,202.567337 306.318146,203.043091 
	C303.996918,208.710358 301.675690,214.377625 298.944794,220.650406 
	C296.408478,226.424057 293.768585,232.154816 291.356476,237.979904 
	C285.538177,252.030624 279.826355,266.125458 273.662292,280.723755 
	C269.072968,291.535431 264.483643,302.347107 259.192627,312.936401 
	C257.535980,309.600494 255.879349,306.264587 254.136703,302.272980 
	C252.191910,297.878998 250.225571,293.494415 248.306412,289.089264 
	C242.829544,276.518005 237.371841,263.938385 231.807281,250.606857 
	C231.391006,249.409454 230.974747,248.212051 231.081284,246.241318 
	C240.502319,246.006058 249.939560,245.337387 259.338654,245.688873 
	C265.539215,245.920746 269.017212,243.673218 271.096954,237.428680 
	C273.563629,232.465973 276.030334,227.503281 278.921936,221.685638 
	C258.439087,221.685638 239.062500,221.685638 220.316528,221.685638 
	C215.649750,211.723312 211.302292,202.442657 206.971786,192.580841 
	C206.892349,192.403946 206.812912,192.227066 206.708618,191.367233 
	C205.758591,189.582153 204.808578,187.797089 203.868607,185.409882 
	C203.520111,184.752380 203.171600,184.094894 202.504807,182.736023 
	C202.353516,182.528595 202.202209,182.321167 202.174362,181.645752 
	C201.839996,181.314789 201.505630,180.983826 201.146378,180.295197 
	C201.146378,180.295197 200.952255,179.993774 200.937256,179.241150 
	C198.990356,174.495163 196.741852,169.846741 195.167297,164.980286 
	C192.810486,157.696136 188.645767,154.279846 180.570480,155.407303 
	C175.045197,156.178741 169.325134,155.555023 163.096634,155.555023 
	C165.292175,160.546585 166.823227,164.187653 168.482880,167.769119 
	C172.652695,176.767517 176.880630,185.738968 181.183136,195.256027 
	C181.510620,195.649033 181.838104,196.042038 182.391891,197.178772 
	C183.668823,199.731827 184.945755,202.284866 186.340607,205.552505 
	C188.259277,209.559341 190.177948,213.566162 192.183182,218.202972 
	C192.766403,219.318344 193.349640,220.433701 193.057404,221.772141 
	C192.170517,221.866150 191.283615,221.960159 189.743835,221.835434 
	C183.813049,221.919891 177.882278,222.004349 171.037872,221.895493 
	C163.247635,221.938385 155.453476,222.140015 147.669083,221.947174 
	C144.490204,221.868408 142.651566,222.817139 141.527542,226.393005 
	C140.364059,228.914276 139.200577,231.435547 137.466003,234.353699 
	C136.667007,236.323303 135.867996,238.292908 134.547363,240.609863 
	C133.659195,242.198364 132.771027,243.786850 131.648499,245.794479 
	C133.568848,245.794479 134.774002,245.794479 136.742203,245.868088 
	C137.505661,245.821152 138.269135,245.774231 139.859879,245.933411 
	C141.555176,245.848312 143.250458,245.763214 145.826736,245.774658 
	C147.889679,245.724136 149.952606,245.673630 152.503708,245.802902 
	C152.663315,245.735107 152.822922,245.667297 153.875443,245.712296 
	C156.557312,245.624405 159.239197,245.536530 162.827820,245.733109 
	C176.879837,245.677399 190.931854,245.621689 205.328278,246.244995 
	C208.887360,253.461975 212.446442,260.678955 215.975586,267.975708 
	C215.975586,267.975708 216.050049,268.017181 216.102234,268.737122 
	C217.139359,271.131317 218.176498,273.525513 219.126602,276.639191 
	C220.744507,279.463684 222.362411,282.288147 223.912613,285.886536 
	C224.242050,286.954224 224.459351,288.072845 224.918015,289.081787 
	C230.369995,301.074738 235.857941,313.051300 241.406235,325.709137 
	C242.635071,328.137970 243.863907,330.566803 245.086609,333.738434 
	C246.201111,336.333099 246.983780,339.153351 248.542404,341.446136 
	C249.651016,343.076935 251.959778,345.210083 253.464996,345.018127 
	C259.095612,344.300140 266.409210,348.722565 270.114624,342.537537 
	C274.673706,334.927612 277.400360,326.219879 281.297546,317.496918 
	C281.641296,316.079712 281.758850,314.556732 282.364410,313.261993 
	C287.424072,302.444031 292.573395,291.668060 298.204346,280.397858 
	C301.139221,273.276947 304.074127,266.156006 307.380707,258.587189 
	C307.741547,257.705566 308.102386,256.823944 308.905701,255.269821 
	C309.266113,253.160629 309.626526,251.051453 310.528137,248.374023 
	C312.543213,247.844650 314.552704,246.882431 316.574280,246.856384 
	C329.383789,246.691330 342.196259,246.771561 355.007050,246.675354 
	C357.613434,246.655777 360.216797,246.229156 363.528992,245.844345 
	C364.988434,243.138870 366.447876,240.433411 368.468506,237.372025 
	C370.560852,232.579269 372.653229,227.786530 375.059540,222.274628 
	C372.774445,222.454895 371.343872,222.567749 369.119965,222.484070 
	C367.765625,222.582718 366.411255,222.681381 364.167389,222.457840 
	C351.929443,222.561462 339.691345,222.649002 327.453735,222.782120 
	C324.965759,222.809189 322.650787,222.786255 323.363281,218.575256 
	C328.215332,207.960754 333.067352,197.346237 338.319611,186.214996 
	C338.984283,184.743011 339.709839,183.295090 340.303070,181.794861 
	C342.904785,175.215134 345.468231,168.620239 348.660950,161.748901 
	C349.713409,159.905502 350.765900,158.062103 352.654419,154.754440 
	C344.983795,155.246979 339.006439,155.630814 332.308502,155.968277 
	C331.830170,156.008865 331.351807,156.049438 330.536682,155.690598 
	C329.857025,155.899628 329.177368,156.108658 327.830048,156.501556 
	C324.966858,162.694824 322.103668,168.888092 318.872437,175.457153 
	C315.995544,181.968414 313.118622,188.479675 309.881104,195.524673 
	C309.582764,196.315735 309.284454,197.106781 308.355164,198.194809 
	C307.920319,199.475281 307.485504,200.755753 306.775085,202.237930 
z"/>
<path fill="#D466F1" opacity="1.000000" stroke="none" 
	d="
M241.336456,325.032166 
	C235.857941,313.051300 230.369995,301.074738 224.918015,289.081787 
	C224.459351,288.072845 224.242050,286.954224 223.958252,285.123291 
	C225.250137,282.784637 226.416992,281.137634 227.760117,279.649719 
	C230.128006,277.026520 232.603470,274.500427 235.282654,272.182312 
	C238.016876,277.929718 240.502365,283.428558 243.044067,289.302490 
	C246.964645,299.105072 250.828964,308.532501 254.796112,318.210785 
	C256.899872,316.646729 258.014191,315.818268 259.349304,314.985992 
	C259.570068,314.982178 260.010162,315.019043 260.028564,315.368744 
	C260.318909,316.797882 260.590851,317.877289 260.836914,319.301514 
	C260.489105,320.744568 260.167175,321.842865 259.535797,322.996582 
	C258.460754,324.013245 257.695129,324.974487 256.507660,325.954529 
	C251.169357,325.659607 246.252914,325.345886 241.336456,325.032166 
z"/>
<path fill="#EDB2F7" opacity="1.000000" stroke="none" 
	d="
M193.932877,221.549072 
	C193.349640,220.433701 192.766403,219.318344 192.214554,217.539780 
	C192.869736,214.224625 193.493546,211.572678 194.302948,208.131760 
	C196.622650,211.753448 198.252838,211.240723 199.986755,208.583191 
	C200.736374,207.434280 202.145096,206.715424 203.460846,206.049850 
	C204.438446,207.836426 205.209641,209.374359 206.014282,211.287292 
	C209.062225,218.117188 212.076736,224.572037 215.083130,231.221832 
	C215.127823,231.697845 215.286057,231.893982 215.684723,232.342377 
	C216.207138,233.532135 216.594513,234.384705 217.055206,235.580276 
	C219.069427,239.795044 221.010345,243.666794 222.902710,247.789612 
	C222.889664,248.379883 222.925186,248.719086 222.955231,249.423157 
	C222.175171,251.165695 221.375473,252.529968 220.630692,253.923569 
	C218.284897,258.312897 213.808014,262.001862 216.005524,267.895935 
	C212.446442,260.678955 208.887360,253.461975 205.141846,245.603165 
	C203.899490,243.378189 202.843567,241.795044 201.728683,239.864655 
	C200.544281,237.326523 199.418823,235.135620 198.261780,232.694885 
	C198.187241,232.282715 198.144287,232.120392 198.090302,231.619293 
	C197.459808,230.156326 196.840332,229.032181 196.226379,227.865784 
	C196.231918,227.823532 196.194824,227.746811 196.160233,227.385193 
	C195.394714,225.198746 194.663803,223.373917 193.932877,221.549072 
z"/>
<path fill="#9C32D0" opacity="1.000000" stroke="none" 
	d="
M307.009033,259.035095 
	C304.074127,266.156006 301.139221,273.276947 297.790100,280.378784 
	C297.542969,278.823608 297.710083,277.287476 297.877228,275.751373 
	C297.361572,275.543732 296.845917,275.336090 296.330292,275.128479 
	C294.575958,278.438507 292.821655,281.748535 290.807312,284.822510 
	C288.935394,279.909302 285.470062,281.496429 282.252869,281.761230 
	C283.220215,277.620880 284.218201,273.860687 285.400330,269.832703 
	C286.835907,266.500916 288.087982,263.437164 289.338593,260.372803 
	C293.883240,249.237350 298.427429,238.101730 303.220520,226.740387 
	C304.573486,224.422348 305.677734,222.330048 307.146545,220.109375 
	C309.496063,218.208435 311.480988,216.435883 312.968262,215.107742 
	C314.988861,217.596451 316.334229,219.253464 317.699219,221.203232 
	C317.452362,222.010895 317.185883,222.525818 316.584473,223.138702 
	C316.149261,225.131302 316.048950,227.025925 316.010620,229.314453 
	C316.083374,230.770340 316.094208,231.832321 315.851349,233.152618 
	C315.321075,234.328018 315.044525,235.245117 314.409851,236.133118 
	C312.024628,237.478775 309.191803,238.409546 308.138611,240.320923 
	C305.967987,244.260330 304.747437,248.723267 303.048523,253.333542 
	C300.589203,259.714325 298.217346,265.732361 295.845490,271.750397 
	C296.425507,272.014954 297.005554,272.279541 297.585602,272.544128 
	C300.447388,268.220306 303.303497,263.892731 306.185211,259.582306 
	C306.354309,259.329346 306.729675,259.214325 307.009033,259.035095 
z"/>
<path fill="#601785" opacity="1.000000" stroke="none" 
	d="
M181.085266,194.721222 
	C176.880630,185.738968 172.652695,176.767517 168.482880,167.769119 
	C166.823227,164.187653 165.292175,160.546585 163.096634,155.555023 
	C169.325134,155.555023 175.045197,156.178741 180.570480,155.407303 
	C188.645767,154.279846 192.810486,157.696136 195.167297,164.980286 
	C196.741852,169.846741 198.990356,174.495163 200.651260,179.477142 
	C198.848221,179.758133 197.161102,179.398651 195.855896,179.947449 
	C194.108627,180.682129 192.657196,182.120407 190.858246,183.415268 
	C190.191483,184.856491 189.291321,186.802139 187.614182,190.427261 
	C186.729385,188.549850 186.486542,187.714447 185.992767,187.071838 
	C185.437149,186.348724 184.655304,185.799408 184.000000,185.200226 
	C180.906647,187.965485 180.906647,187.965485 181.085266,194.721222 
M180.512695,177.432983 
	C182.791275,177.651932 185.095230,178.126968 187.330215,177.905685 
	C187.873291,177.851898 188.945312,175.041031 188.484222,174.292145 
	C185.974335,170.215927 183.582291,165.830139 178.270218,164.225800 
	C175.452988,169.258331 172.766830,173.944443 176.654282,179.690811 
	C177.807663,178.845490 178.813583,178.108231 180.512695,177.432983 
z"/>
<path fill="#D466F1" opacity="1.000000" stroke="none" 
	d="
M230.558472,247.014648 
	C230.974747,248.212051 231.391006,249.409454 231.831131,251.335663 
	C231.767029,253.142685 231.679092,254.220932 231.591156,255.299164 
	C231.190292,255.482605 230.789444,255.666031 230.388596,255.849472 
	C229.013382,253.640244 227.610123,251.447845 226.271912,249.216431 
	C225.212936,247.450607 224.233795,245.636887 223.163315,243.501648 
	C222.748581,242.098663 222.389755,241.038467 222.007172,239.691833 
	C221.695175,238.931274 221.406967,238.457153 221.056458,237.613846 
	C220.341568,234.835693 219.688965,232.426712 219.240723,229.741791 
	C219.316605,227.234863 219.188141,225.003891 219.025833,222.185028 
	C233.590591,222.671341 247.661713,220.754593 261.640167,224.418777 
	C260.693604,227.904510 259.875244,230.918091 258.584900,233.946274 
	C247.287888,233.960892 236.462906,233.960892 224.772949,233.960892 
	C227.001617,238.989380 228.780045,243.002014 230.558472,247.014648 
z"/>
<path fill="#AC37EB" opacity="1.000000" stroke="none" 
	d="
M230.819885,246.627991 
	C228.780045,243.002014 227.001617,238.989380 224.772949,233.960892 
	C236.462906,233.960892 247.287888,233.960892 259.034882,233.965576 
	C261.740845,233.974747 263.556854,234.195541 265.301849,233.936996 
	C268.549927,233.455734 270.116882,234.894974 270.599640,237.927887 
	C269.017212,243.673218 265.539215,245.920746 259.338654,245.688873 
	C249.939560,245.337387 240.502319,246.006058 230.819885,246.627991 
z"/>
<path fill="#EDB2F7" opacity="1.000000" stroke="none" 
	d="
M302.971802,226.966156 
	C298.427429,238.101730 293.883240,249.237350 289.338593,260.372803 
	C288.087982,263.437164 286.835907,266.500916 285.066406,269.972321 
	C283.586884,272.439941 282.631744,274.503174 281.662476,276.559723 
	C280.147583,279.773987 276.387054,281.574066 274.071594,280.202484 
	C279.826355,266.125458 285.538177,252.030624 291.356476,237.979904 
	C293.768585,232.154816 296.408478,226.424057 299.481873,220.429123 
	C301.003204,222.460602 301.987488,224.713379 302.971802,226.966156 
z"/>
<path fill="#C940F6" opacity="1.000000" stroke="none" 
	d="
M161.921066,245.448654 
	C159.239197,245.536530 156.557312,245.624405 153.345428,245.507751 
	C152.548782,245.409836 152.282166,245.516479 152.015549,245.623108 
	C149.952606,245.673630 147.889679,245.724136 145.112122,245.512878 
	C142.609207,245.409851 140.820892,245.568588 139.032593,245.727310 
	C138.269135,245.774231 137.505661,245.821152 136.308197,245.530212 
	C135.605774,243.549072 135.337372,241.905792 135.068985,240.262512 
	C135.867996,238.292908 136.667007,236.323303 138.076721,234.208344 
	C140.130356,234.298126 141.573257,234.533279 143.475342,234.812805 
	C147.924805,234.815353 151.915085,234.773560 156.369873,234.828751 
	C160.863922,234.915604 164.893417,234.905457 169.340210,234.925964 
	C172.155899,234.627716 174.554306,234.298843 176.969818,234.350098 
	C177.378845,236.174240 177.770767,237.618240 178.088043,239.421722 
	C176.632736,243.069672 174.107361,244.093994 170.635574,244.134323 
	C167.726028,244.168121 164.825562,244.980835 161.921066,245.448654 
z"/>
<path fill="#B04CE0" opacity="1.000000" stroke="none" 
	d="
M270.848297,237.678284 
	C270.116882,234.894974 268.549927,233.455734 265.301849,233.936996 
	C263.556854,234.195541 261.740845,233.974747 259.506897,233.950958 
	C259.875244,230.918091 260.693604,227.904510 261.640167,224.418777 
	C247.661713,220.754593 233.590591,222.671341 219.025833,222.185028 
	C219.188141,225.003891 219.316605,227.234863 219.005585,229.570221 
	C218.041885,229.115387 217.517639,228.556168 216.955276,227.624237 
	C216.795334,226.270111 216.673523,225.288712 216.611298,223.926697 
	C215.165222,220.147491 214.182739,216.368225 212.044556,213.429947 
	C207.652695,207.394638 202.802551,201.768417 206.989975,193.649261 
	C207.053680,193.525742 206.969833,193.326111 206.954834,193.162003 
	C211.302292,202.442657 215.649750,211.723312 220.316528,221.685638 
	C239.062500,221.685638 258.439087,221.685638 278.921936,221.685638 
	C276.030334,227.503281 273.563629,232.465973 270.848297,237.678284 
z"/>
<path fill="#9C32D0" opacity="1.000000" stroke="none" 
	d="
M322.950928,219.294128 
	C322.650787,222.786255 324.965759,222.809189 327.453735,222.782120 
	C339.691345,222.649002 351.929443,222.561462 364.390076,222.904602 
	C358.430908,223.594223 352.249023,223.837051 345.685730,224.065125 
	C343.954437,225.286850 341.767822,226.316406 341.401703,227.796280 
	C339.941467,233.699142 335.919617,235.632980 330.493805,236.027481 
	C329.473175,236.101669 328.475494,236.491714 327.467194,236.736008 
	C330.375092,239.042542 333.466461,241.178787 336.606415,241.252792 
	C339.400818,241.318680 342.249084,239.100479 345.375977,237.929031 
	C346.081268,238.020844 346.484192,238.074005 347.074280,238.401428 
	C348.542572,240.746140 349.823730,242.816605 350.632446,244.937027 
	C345.670471,245.002609 341.163727,245.274506 336.695343,244.974533 
	C329.759583,244.508896 323.350494,242.750153 319.903748,235.336243 
	C320.903992,229.715027 321.927460,224.504578 322.950928,219.294128 
M324.107513,228.196136 
	C326.261108,228.646530 328.557617,229.755478 330.520935,229.329300 
	C331.970612,229.014618 332.985748,226.698135 334.194489,225.273529 
	C333.837372,224.831818 333.480286,224.390121 333.123199,223.948410 
	C330.209686,225.482162 325.306061,220.435791 324.107513,228.196136 
z"/>
<path fill="#DA8CF3" opacity="1.000000" stroke="none" 
	d="
M215.990555,267.935822 
	C213.808014,262.001862 218.284897,258.312897 220.630692,253.923569 
	C221.375473,252.529968 222.175171,251.165695 223.223267,249.628906 
	C227.342484,256.957764 231.188187,264.445740 235.033905,271.933685 
	C232.603470,274.500427 230.128006,277.026520 227.760117,279.649719 
	C226.416992,281.137634 225.250137,282.784637 223.992096,284.736328 
	C222.362411,282.288147 220.744507,279.463684 219.332184,276.026794 
	C218.375198,272.948669 217.212616,270.482910 216.050049,268.017181 
	C216.050049,268.017181 215.975586,267.975708 215.990555,267.935822 
z"/>
<path fill="#C940F6" opacity="1.000000" stroke="none" 
	d="
M346.067139,224.079895 
	C352.249023,223.837051 358.430908,223.594223 364.834839,223.065704 
	C366.411255,222.681381 367.765625,222.582718 369.659576,222.862946 
	C370.524994,224.763336 371.413727,226.431366 371.063538,227.776917 
	C370.245270,230.920609 368.832031,233.909454 367.309448,237.040619 
	C365.702362,237.164536 364.444611,237.190674 363.188904,237.256287 
	C357.754639,237.540268 352.320984,237.835831 346.887085,238.127167 
	C346.484192,238.074005 346.081268,238.020844 345.417175,237.569839 
	C345.459717,232.807968 345.763428,228.443924 346.067139,224.079895 
z"/>
<path fill="#601785" opacity="1.000000" stroke="none" 
	d="
M333.029083,156.014618 
	C339.006439,155.630814 344.983795,155.246979 352.654419,154.754440 
	C350.765900,158.062103 349.713409,159.905502 348.143097,161.636230 
	C346.924286,161.738510 345.826172,161.742462 345.582825,162.200516 
	C342.644257,167.731918 339.831940,173.330383 336.711487,179.107788 
	C336.049011,180.128555 335.661774,180.952911 335.142029,181.409210 
	C334.245422,179.591690 333.481323,178.142212 333.034912,177.295349 
	C330.538361,177.174561 328.584137,177.080002 326.718750,176.606781 
	C328.898224,171.527847 330.988892,166.827591 333.358521,161.927826 
	C335.423065,159.612061 335.455902,157.682404 333.029083,156.014618 
z"/>
<path fill="#C940F6" opacity="1.000000" stroke="none" 
	d="
M241.371338,325.370667 
	C246.252914,325.345886 251.169357,325.659607 256.527100,326.332581 
	C256.944336,327.445374 256.920349,328.198944 256.590424,329.172607 
	C255.770554,332.024323 255.256607,334.655945 254.742661,337.287598 
	C255.266861,337.593109 255.791061,337.898621 256.315247,338.204163 
	C261.574951,335.769531 266.834656,333.334869 272.095703,331.315918 
	C271.618469,338.932098 268.997955,343.410034 264.909332,344.013916 
	C253.576660,345.687775 251.095383,344.354675 247.778732,335.192261 
	C247.440674,334.258331 246.014160,333.718414 245.092743,332.995636 
	C243.863907,330.566803 242.635071,328.137970 241.371338,325.370667 
z"/>
<path fill="#B04CE0" opacity="1.000000" stroke="none" 
	d="
M235.282654,272.182312 
	C231.188187,264.445740 227.342484,256.957764 223.228729,249.264069 
	C222.925186,248.719086 222.889664,248.379883 222.927475,247.326233 
	C223.073608,245.689331 223.146408,244.766891 223.219223,243.844437 
	C224.233795,245.636887 225.212936,247.450607 226.271912,249.216431 
	C227.610123,251.447845 229.013382,253.640244 230.388596,255.849472 
	C230.789444,255.666031 231.190292,255.482605 231.591156,255.299164 
	C231.679092,254.220932 231.767029,253.142685 231.880798,251.713242 
	C237.371841,263.938385 242.829544,276.518005 248.306412,289.089264 
	C250.225571,293.494415 252.191910,297.878998 253.911057,302.477325 
	C250.526001,297.225311 247.366592,291.768921 243.615952,285.291473 
	C243.257080,287.368927 243.122467,288.148163 242.987854,288.927368 
	C240.502365,283.428558 238.016876,277.929718 235.282654,272.182312 
z"/>
<path fill="#EDB2F7" opacity="1.000000" stroke="none" 
	d="
M155.905350,234.731750 
	C151.915085,234.773560 147.924805,234.815353 143.467590,234.448959 
	C142.688141,231.344528 142.375641,228.648285 142.063126,225.952057 
	C142.651566,222.817139 144.490204,221.868408 147.669083,221.947174 
	C155.453476,222.140015 163.247635,221.938385 171.271149,222.230896 
	C166.304749,226.621445 161.105057,230.676605 155.905350,234.731750 
z"/>
<path fill="#741DA3" opacity="1.000000" stroke="none" 
	d="
M181.134201,194.988617 
	C180.906647,187.965485 180.906647,187.965485 184.000000,185.200226 
	C184.655304,185.799408 185.437149,186.348724 185.992767,187.071838 
	C186.486542,187.714447 186.729385,188.549850 187.614182,190.427261 
	C189.291321,186.802139 190.191483,184.856491 190.858246,183.415268 
	C192.657196,182.120407 194.108627,180.682129 195.855896,179.947449 
	C197.161102,179.398651 198.848221,179.758133 200.658752,179.853455 
	C200.952255,179.993774 201.146378,180.295197 201.157501,180.708618 
	C201.462723,181.452606 201.756805,181.783173 202.050903,182.113739 
	C202.202209,182.321167 202.353516,182.528595 202.683533,183.374420 
	C203.194366,184.679230 203.526459,185.345612 203.858551,186.012009 
	C204.808578,187.797089 205.758591,189.582153 206.358093,191.722992 
	C204.677109,193.460602 203.216263,194.743134 202.061584,196.258881 
	C201.279175,197.285950 200.927002,198.640747 200.243286,199.534485 
	C199.387573,197.578217 198.670990,195.936386 197.959503,193.913727 
	C197.286713,192.691422 196.608826,191.849960 195.627716,191.152924 
	C193.556396,193.198532 191.788300,195.099716 190.014160,196.995972 
	C190.008118,196.991043 190.001984,196.976700 189.982101,196.630829 
	C189.020538,194.865402 188.078857,193.445831 186.677551,191.333405 
	C184.831314,193.420929 183.498444,194.927979 182.165588,196.435043 
	C181.838104,196.042038 181.510620,195.649033 181.134201,194.988617 
M196.802994,187.504318 
	C196.503204,187.196442 196.203430,186.888580 195.903641,186.580704 
	C195.697998,186.960190 195.492340,187.339691 195.286697,187.719177 
	C195.752792,187.827026 196.218872,187.934875 196.802994,187.504318 
z"/>
<path fill="#9C32D0" opacity="1.000000" stroke="none" 
	d="
M245.089676,333.367035 
	C246.014160,333.718414 247.440674,334.258331 247.778732,335.192261 
	C251.095383,344.354675 253.576660,345.687775 264.909332,344.013916 
	C268.997955,343.410034 271.618469,338.932098 272.191406,331.155090 
	C272.448120,330.379028 272.642670,330.218414 273.044525,330.217346 
	C273.155334,329.862335 273.090973,329.386749 272.786621,328.705322 
	C271.214203,328.985229 269.910400,329.768982 268.543884,329.900269 
	C264.627533,330.276428 260.532288,332.169098 256.896332,328.952484 
	C256.920349,328.198944 256.944336,327.445374 256.948914,326.313782 
	C257.695129,324.974487 258.460754,324.013245 259.860474,323.146729 
	C262.888550,324.791626 264.618958,328.931793 268.282532,325.984650 
	C271.666656,323.262268 274.601044,319.980865 278.042969,317.083130 
	C279.207947,317.475952 280.063477,317.731293 280.919006,317.986633 
	C277.400360,326.219879 274.673706,334.927612 270.114624,342.537537 
	C266.409210,348.722565 259.095612,344.300140 253.464996,345.018127 
	C251.959778,345.210083 249.651016,343.076935 248.542404,341.446136 
	C246.983780,339.153351 246.201111,336.333099 245.089676,333.367035 
z"/>
<path fill="#DA8CF3" opacity="1.000000" stroke="none" 
	d="
M323.157104,218.934692 
	C321.927460,224.504578 320.903992,229.715027 319.577209,235.372986 
	C318.217590,234.845093 317.161316,233.869705 316.105042,232.894302 
	C316.094208,231.832321 316.083374,230.770340 316.077148,228.947784 
	C316.360962,226.471725 316.640198,224.756241 316.919403,223.040741 
	C317.185883,222.525818 317.452362,222.010895 317.816528,220.858780 
	C319.872986,216.402832 321.970947,212.647995 323.760437,208.751465 
	C327.064606,201.556793 330.187805,194.279037 333.696228,187.036926 
	C335.184875,186.741302 336.363678,186.444611 337.611206,186.310379 
	C337.679871,186.472824 337.919403,186.731735 337.919403,186.731735 
	C333.067352,197.346237 328.215332,207.960754 323.157104,218.934692 
z"/>
<path fill="#9C32D0" opacity="1.000000" stroke="none" 
	d="
M162.374451,245.590881 
	C164.825562,244.980835 167.726028,244.168121 170.635574,244.134323 
	C174.107361,244.093994 176.632736,243.069672 178.432251,239.353943 
	C185.032364,234.841980 186.527908,234.857025 191.053833,239.339447 
	C194.674973,241.520584 197.984863,245.337448 201.787628,240.211899 
	C202.843567,241.795044 203.899490,243.378189 204.969635,245.263641 
	C190.931854,245.621689 176.879837,245.677399 162.374451,245.590881 
z"/>
<path fill="#741DA3" opacity="1.000000" stroke="none" 
	d="
M315.851349,233.152618 
	C317.161316,233.869705 318.217590,234.845093 319.600403,235.783752 
	C323.350494,242.750153 329.759583,244.508896 336.695343,244.974533 
	C341.163727,245.274506 345.670471,245.002609 351.019745,245.047058 
	C355.526825,245.401459 359.174164,245.695816 362.821533,245.990173 
	C360.216797,246.229156 357.613434,246.655777 355.007050,246.675354 
	C342.196259,246.771561 329.383789,246.691330 316.574280,246.856384 
	C314.552704,246.882431 312.543213,247.844650 310.205750,248.290436 
	C311.511536,244.191956 313.139740,240.177078 314.767944,236.162216 
	C315.044525,235.245117 315.321075,234.328018 315.851349,233.152618 
z"/>
<path fill="#B04CE0" opacity="1.000000" stroke="none" 
	d="
M281.108276,317.741760 
	C280.063477,317.731293 279.207947,317.475952 278.231903,316.766663 
	C282.430023,305.894653 286.748657,295.476624 291.067322,285.058563 
	C292.821655,281.748535 294.575958,278.438507 296.330292,275.128479 
	C296.845917,275.336090 297.361572,275.543732 297.877228,275.751373 
	C297.710083,277.287476 297.542969,278.823608 297.535767,280.619568 
	C292.573395,291.668060 287.424072,302.444031 282.364410,313.261993 
	C281.758850,314.556732 281.641296,316.079712 281.108276,317.741760 
z"/>
<path fill="#DA8CF3" opacity="1.000000" stroke="none" 
	d="
M273.866943,280.463135 
	C276.387054,281.574066 280.147583,279.773987 281.662476,276.559723 
	C282.631744,274.503174 283.586884,272.439941 284.882263,270.240112 
	C284.218201,273.860687 283.220215,277.620880 281.972504,281.966034 
	C280.539032,284.763672 279.355316,286.976379 277.876007,289.095642 
	C277.111481,287.839783 276.642517,286.677368 275.611572,284.121918 
	C271.784546,292.542572 268.453033,299.873016 265.055176,307.377472 
	C264.988831,307.551483 264.790558,307.866791 264.467529,307.965454 
	C262.766418,310.382446 261.388275,312.700745 260.010162,315.019043 
	C260.010162,315.019043 259.570068,314.982178 259.455200,314.756927 
	C259.524963,314.074036 259.709656,313.616425 259.894287,313.158783 
	C264.483643,302.347107 269.072968,291.535431 273.866943,280.463135 
z"/>
<path fill="#D466F1" opacity="1.000000" stroke="none" 
	d="
M176.952698,233.969971 
	C174.554306,234.298843 172.155899,234.627716 169.423187,234.605179 
	C171.153946,231.938019 174.224594,229.935760 175.065475,227.238434 
	C176.605637,222.297897 179.550186,221.292953 183.971771,221.763779 
	C186.099609,221.990341 188.254242,221.965271 190.396729,222.054169 
	C191.283615,221.960159 192.170517,221.866150 193.495148,221.660614 
	C194.663803,223.373917 195.394714,225.198746 195.711456,227.454620 
	C194.141586,227.893204 192.850342,228.245453 191.851990,227.852890 
	C184.866577,225.105972 180.571136,228.658798 176.952698,233.969971 
z"/>
<path fill="#DA8CF3" opacity="1.000000" stroke="none" 
	d="
M190.070282,221.944794 
	C188.254242,221.965271 186.099609,221.990341 183.971771,221.763779 
	C179.550186,221.292953 176.605637,222.297897 175.065475,227.238434 
	C174.224594,229.935760 171.153946,231.938019 169.005905,234.574539 
	C164.893417,234.905457 160.863922,234.915604 156.369873,234.828735 
	C161.105057,230.676605 166.304749,226.621445 171.727966,222.327545 
	C177.882278,222.004349 183.813049,221.919891 190.070282,221.944794 
z"/>
<path fill="#AC37EB" opacity="1.000000" stroke="none" 
	d="
M259.543457,313.047607 
	C259.709656,313.616425 259.524963,314.074036 259.234406,314.760742 
	C258.014191,315.818268 256.899872,316.646729 254.796112,318.210785 
	C250.828964,308.532501 246.964645,299.105072 243.044083,289.302490 
	C243.122467,288.148163 243.257080,287.368927 243.615952,285.291473 
	C247.366592,291.768921 250.526001,297.225311 253.954056,302.805176 
	C255.879349,306.264587 257.535980,309.600494 259.543457,313.047607 
z"/>
<path fill="#B04CE0" opacity="1.000000" stroke="none" 
	d="
M310.241730,194.990936 
	C313.118622,188.479675 315.995544,181.968414 319.250671,175.305145 
	C319.628876,175.153122 320.022308,175.188766 320.015167,175.563126 
	C321.015198,178.305313 322.022400,180.673126 322.988800,183.407623 
	C320.071045,189.604660 317.194092,195.435028 314.251740,200.892136 
	C312.871490,198.676224 311.556610,196.833572 310.241730,194.990936 
z"/>
<path fill="#D466F1" opacity="1.000000" stroke="none" 
	d="
M363.175262,245.917267 
	C359.174164,245.695816 355.526825,245.401459 351.492188,244.997070 
	C349.823730,242.816605 348.542572,240.746140 347.074280,238.401428 
	C352.320984,237.835831 357.754639,237.540268 363.188904,237.256287 
	C364.444611,237.190674 365.702362,237.164536 367.357269,237.237518 
	C367.755371,237.354828 367.907318,237.727936 367.907318,237.727936 
	C366.447876,240.433411 364.988434,243.138870 363.175262,245.917267 
z"/>
<path fill="#DA8CF3" opacity="1.000000" stroke="none" 
	d="
M203.254425,205.801208 
	C202.145096,206.715424 200.736374,207.434280 199.986755,208.583191 
	C198.252838,211.240723 196.622650,211.753448 194.302948,208.131760 
	C193.493546,211.572678 192.869736,214.224625 192.171265,217.224792 
	C190.177948,213.566162 188.259277,209.559341 186.582672,205.046524 
	C187.883820,202.019257 188.942902,199.497986 190.001984,196.976700 
	C190.001984,196.976700 190.008118,196.991043 190.141571,197.410492 
	C190.408463,198.086563 190.541885,198.343185 190.655243,198.578064 
	C190.635162,198.556335 190.702209,198.520218 190.863953,198.868546 
	C194.832993,206.021240 194.832993,206.021240 200.435364,200.687912 
	C201.523849,202.572083 202.389145,204.186661 203.254425,205.801208 
z"/>
<path fill="#DA8CF3" opacity="1.000000" stroke="none" 
	d="
M303.220520,226.740387 
	C301.987488,224.713379 301.003204,222.460602 299.686707,220.126373 
	C301.675690,214.377625 303.996918,208.710358 306.652679,203.180344 
	C308.360718,204.883804 309.734222,206.450012 311.049194,208.379608 
	C309.587769,212.574600 308.184875,216.406174 306.781982,220.237747 
	C305.677734,222.330048 304.573486,224.422348 303.220520,226.740387 
z"/>
<path fill="#C940F6" opacity="1.000000" stroke="none" 
	d="
M314.409851,236.133118 
	C313.139740,240.177078 311.511536,244.191956 309.935150,248.574554 
	C309.626526,251.051453 309.266113,253.160629 308.378906,255.615997 
	C306.934235,256.187469 306.016296,256.412781 305.591522,256.517029 
	C304.680878,255.201950 303.908417,254.086365 303.135956,252.970795 
	C304.747437,248.723267 305.967987,244.260330 308.138611,240.320923 
	C309.191803,238.409546 312.024628,237.478775 314.409851,236.133118 
z"/>
<path fill="#9C32D0" opacity="1.000000" stroke="none" 
	d="
M203.460846,206.049866 
	C202.389145,204.186661 201.523849,202.572083 200.462601,200.543091 
	C200.266647,200.128677 200.382416,199.848969 200.382416,199.848969 
	C200.927002,198.640747 201.279175,197.285950 202.061584,196.258881 
	C203.216263,194.743134 204.677109,193.460602 206.370514,192.064468 
	C206.812912,192.227066 206.892349,192.403946 206.963318,192.871429 
	C206.969833,193.326111 207.053680,193.525742 206.989975,193.649261 
	C202.802551,201.768417 207.652695,207.394638 212.044556,213.429947 
	C214.182739,216.368225 215.165222,220.147491 216.341049,223.752808 
	C214.987686,222.274048 214.123566,220.461731 212.905746,218.930771 
	C210.709061,216.169159 208.300766,213.575867 205.980835,210.912277 
	C205.209641,209.374359 204.438446,207.836426 203.460846,206.049866 
z"/>
<path fill="#9C32D0" opacity="1.000000" stroke="none" 
	d="
M320.022308,175.188766 
	C320.022308,175.188766 319.628876,175.153122 319.434662,175.117249 
	C322.103668,168.888092 324.966858,162.694824 328.462921,156.455597 
	C329.688354,156.303085 330.280914,156.196548 330.873474,156.089996 
	C331.351807,156.049438 331.830170,156.008865 332.668793,155.991455 
	C335.455902,157.682404 335.423065,159.612061 333.279663,161.625137 
	C331.968597,161.427658 324.665802,168.137421 323.991821,169.305786 
	C322.812683,171.349854 321.360229,173.236282 320.022308,175.188766 
z"/>
<path fill="#9C32D0" opacity="1.000000" stroke="none" 
	d="
M338.119507,186.473358 
	C337.919403,186.731735 337.679871,186.472824 337.692383,185.957062 
	C337.757477,183.232544 341.769684,180.588272 336.986694,178.911362 
	C339.831940,173.330383 342.644257,167.731918 345.582825,162.200516 
	C345.826172,161.742462 346.924286,161.738510 347.835388,161.777222 
	C345.468231,168.620239 342.904785,175.215134 340.303070,181.794861 
	C339.709839,183.295090 338.984283,184.743011 338.119507,186.473358 
z"/>
<path fill="#B04CE0" opacity="1.000000" stroke="none" 
	d="
M303.048523,253.333542 
	C303.908417,254.086365 304.680878,255.201950 305.591522,256.517029 
	C306.016296,256.412781 306.934235,256.187469 308.157715,255.952240 
	C308.102386,256.823944 307.741547,257.705566 307.194885,258.811157 
	C306.729675,259.214325 306.354309,259.329346 306.185211,259.582306 
	C303.303497,263.892731 300.447388,268.220306 297.585602,272.544128 
	C297.005554,272.279541 296.425507,272.014954 295.845490,271.750397 
	C298.217346,265.732361 300.589203,259.714325 303.048523,253.333542 
z"/>
<path fill="#B04CE0" opacity="1.000000" stroke="none" 
	d="
M189.982101,196.630829 
	C188.942902,199.497986 187.883820,202.019257 186.523712,204.689240 
	C184.945755,202.284866 183.668823,199.731827 182.278748,196.806915 
	C183.498444,194.927979 184.831314,193.420929 186.677551,191.333405 
	C188.078857,193.445831 189.020538,194.865402 189.982101,196.630829 
z"/>
<path fill="#D466F1" opacity="1.000000" stroke="none" 
	d="
M311.107758,208.016205 
	C309.734222,206.450012 308.360718,204.883804 306.926208,202.942474 
	C306.865173,202.567337 306.775085,202.237930 307.207123,201.949585 
	C308.088165,200.406769 308.537140,199.152298 308.986145,197.897827 
	C309.284454,197.106781 309.582764,196.315735 310.061401,195.257812 
	C311.556610,196.833572 312.871490,198.676224 314.145874,201.219299 
	C313.106171,203.951874 312.106964,205.984039 311.107758,208.016205 
z"/>
<path fill="#9C32D0" opacity="1.000000" stroke="none" 
	d="
M368.187927,237.549988 
	C367.907318,237.727936 367.755371,237.354828 367.707581,237.157928 
	C368.832031,233.909454 370.245270,230.920609 371.063538,227.776917 
	C371.413727,226.431366 370.524994,224.763336 370.056213,222.961212 
	C371.343872,222.567749 372.774445,222.454895 375.059540,222.274628 
	C372.653229,227.786530 370.560852,232.579269 368.187927,237.549988 
z"/>
<path fill="#DA8CF3" opacity="1.000000" stroke="none" 
	d="
M141.795334,226.172531 
	C142.375641,228.648285 142.688141,231.344528 143.008408,234.404602 
	C141.573257,234.533279 140.130356,234.298126 138.362274,234.009888 
	C139.200577,231.435547 140.364059,228.914276 141.795334,226.172531 
z"/>
<path fill="#9C32D0" opacity="1.000000" stroke="none" 
	d="
M134.808167,240.436188 
	C135.337372,241.905792 135.605774,243.549072 135.926666,245.493408 
	C134.774002,245.794479 133.568848,245.794479 131.648499,245.794479 
	C132.771027,243.786850 133.659195,242.198364 134.808167,240.436188 
z"/>
<path fill="#EDB2F7" opacity="1.000000" stroke="none" 
	d="
M216.076141,268.377136 
	C217.212616,270.482910 218.375198,272.948669 219.375702,275.667053 
	C218.176498,273.525513 217.139359,271.131317 216.076141,268.377136 
z"/>
<path fill="#DA8CF3" opacity="1.000000" stroke="none" 
	d="
M308.670654,198.046326 
	C308.537140,199.152298 308.088165,200.406769 307.344910,201.848724 
	C307.485504,200.755753 307.920319,199.475281 308.670654,198.046326 
z"/>
<path fill="#9C32D0" opacity="1.000000" stroke="none" 
	d="
M139.446228,245.830368 
	C140.820892,245.568588 142.609207,245.409851 144.671631,245.464630 
	C143.250458,245.763214 141.555176,245.848312 139.446228,245.830368 
z"/>
<path fill="#601785" opacity="1.000000" stroke="none" 
	d="
M330.705078,155.890289 
	C330.280914,156.196548 329.688354,156.303085 328.796753,156.363663 
	C329.177368,156.108658 329.857025,155.899628 330.705078,155.890289 
z"/>
<path fill="#601785" opacity="1.000000" stroke="none" 
	d="
M203.863586,185.710938 
	C203.526459,185.345612 203.194366,184.679230 202.842682,183.725113 
	C203.171600,184.094894 203.520111,184.752380 203.863586,185.710938 
z"/>
<path fill="#601785" opacity="1.000000" stroke="none" 
	d="
M202.112640,181.879745 
	C201.756805,181.783173 201.462723,181.452606 201.169952,180.887451 
	C201.505630,180.983826 201.839996,181.314789 202.112640,181.879745 
z"/>
<path fill="#9C32D0" opacity="1.000000" stroke="none" 
	d="
M152.259628,245.713013 
	C152.282166,245.516479 152.548782,245.409836 152.898956,245.451355 
	C152.822922,245.667297 152.663315,245.735107 152.259628,245.713013 
z"/>
<path fill="#741DA3" opacity="1.000000" stroke="none" 
	d="
M278.171600,289.189087 
	C279.355316,286.976379 280.539032,284.763672 282.003143,282.346191 
	C285.470062,281.496429 288.935394,279.909302 290.807312,284.822510 
	C286.748657,295.476624 282.430023,305.894653 277.922455,316.629211 
	C274.601044,319.980865 271.666656,323.262268 268.282532,325.984650 
	C264.618958,328.931793 262.888550,324.791626 260.169891,323.091278 
	C260.167175,321.842865 260.489105,320.744568 261.074951,319.299164 
	C261.338867,318.952026 261.814056,318.953552 262.150696,319.015076 
	C263.870361,319.227020 265.939728,320.018219 266.508850,319.408661 
	C268.269867,317.522583 269.674133,315.208527 270.825104,312.867981 
	C273.011444,308.422058 272.189880,307.268890 267.224579,306.742096 
	C273.481384,302.269196 276.517426,296.163086 278.171600,289.189087 
z"/>
<path fill="#B04CE0" opacity="1.000000" stroke="none" 
	d="
M261.814056,318.953552 
	C261.814056,318.953552 261.338867,318.952026 261.100830,318.954376 
	C260.590851,317.877289 260.318909,316.797882 260.028564,315.368744 
	C261.388275,312.700745 262.766418,310.382446 264.503784,308.345428 
	C263.846710,312.069000 262.830383,315.511261 261.814056,318.953552 
z"/>
<path fill="#B04CE0" opacity="1.000000" stroke="none" 
	d="
M176.969818,234.350098 
	C180.571136,228.658798 184.866577,225.105972 191.851990,227.852890 
	C192.850342,228.245453 194.141586,227.893204 195.746063,227.816238 
	C196.194824,227.746811 196.231918,227.823532 196.167969,228.243164 
	C196.769791,229.761215 197.435562,230.859650 198.101318,231.958084 
	C198.144287,232.120392 198.187241,232.282715 197.847565,232.711777 
	C195.259583,235.001450 193.054214,237.024384 190.848846,239.047318 
	C186.527908,234.857025 185.032364,234.841980 178.506897,238.994461 
	C177.770767,237.618240 177.378845,236.174240 176.969818,234.350098 
z"/>
<path fill="#C940F6" opacity="1.000000" stroke="none" 
	d="
M191.053833,239.339447 
	C193.054214,237.024384 195.259583,235.001450 197.879150,232.961639 
	C199.418823,235.135620 200.544281,237.326523 201.728683,239.864655 
	C197.984863,245.337448 194.674973,241.520584 191.053833,239.339447 
z"/>
<path fill="#741DA3" opacity="1.000000" stroke="none" 
	d="
M206.014282,211.287292 
	C208.300766,213.575867 210.709061,216.169159 212.905746,218.930771 
	C214.123566,220.461731 214.987686,222.274048 216.281464,224.133423 
	C216.673523,225.288712 216.795334,226.270111 216.737793,227.837799 
	C216.069382,229.291687 215.580307,230.159286 215.091248,231.026901 
	C212.076736,224.572037 209.062225,218.117188 206.014282,211.287292 
z"/>
<path fill="#9C32D0" opacity="1.000000" stroke="none" 
	d="
M215.083130,231.221832 
	C215.580307,230.159286 216.069382,229.291687 216.775940,228.210526 
	C217.517639,228.556168 218.041885,229.115387 218.801239,229.846161 
	C219.688965,232.426712 220.341568,234.835693 220.837067,237.785294 
	C221.130295,238.876694 221.580627,239.427475 222.030945,239.978256 
	C222.389755,241.038467 222.748581,242.098663 223.163315,243.501648 
	C223.146408,244.766891 223.073608,245.689331 222.976044,247.075165 
	C221.010345,243.666794 219.069427,239.795044 217.068207,235.190140 
	C216.521835,233.639709 216.035767,232.822449 215.549683,232.005173 
	C215.286057,231.893982 215.127823,231.697845 215.083130,231.221832 
z"/>
<path fill="#D466F1" opacity="1.000000" stroke="none" 
	d="
M198.090302,231.619293 
	C197.435562,230.859650 196.769791,229.761215 196.162445,228.285400 
	C196.840332,229.032181 197.459808,230.156326 198.090302,231.619293 
z"/>
<path fill="#741DA3" opacity="1.000000" stroke="none" 
	d="
M215.684723,232.342377 
	C216.035767,232.822449 216.521835,233.639709 216.994904,234.847122 
	C216.594513,234.384705 216.207138,233.532135 215.684723,232.342377 
z"/>
<path fill="#741DA3" opacity="1.000000" stroke="none" 
	d="
M311.049194,208.379608 
	C312.106964,205.984039 313.106171,203.951874 314.211243,201.592560 
	C317.194092,195.435028 320.071045,189.604660 323.217316,183.165527 
	C324.534363,180.699646 325.582153,178.842545 326.629944,176.985458 
	C328.584137,177.080002 330.538361,177.174561 333.034912,177.295349 
	C333.481323,178.142212 334.245422,179.591690 335.122253,181.700943 
	C334.618805,183.919113 334.002594,185.477493 333.386383,187.035889 
	C330.187805,194.279037 327.064606,201.556793 323.760437,208.751465 
	C321.970947,212.647995 319.872986,216.402832 317.796875,220.566040 
	C316.334229,219.253464 314.988861,217.596451 312.968262,215.107742 
	C311.480988,216.435883 309.496063,218.208435 307.146545,220.109375 
	C308.184875,216.406174 309.587769,212.574600 311.049194,208.379608 
z"/>
<path fill="#741DA3" opacity="1.000000" stroke="none" 
	d="
M316.584473,223.138702 
	C316.640198,224.756241 316.360962,226.471725 316.015198,228.553894 
	C316.048950,227.025925 316.149261,225.131302 316.584473,223.138702 
z"/>
<path fill="#741DA3" opacity="1.000000" stroke="none" 
	d="
M180.166107,177.401978 
	C178.813583,178.108231 177.807663,178.845490 176.654282,179.690811 
	C172.766830,173.944443 175.452988,169.258331 178.270218,164.225800 
	C183.582291,165.830139 185.974335,170.215927 188.484222,174.292145 
	C188.945312,175.041031 187.873291,177.851898 187.330215,177.905685 
	C185.095230,178.126968 182.791275,177.651932 180.166107,177.401978 
z"/>
<path fill="#B04CE0" opacity="1.000000" stroke="none" 
	d="
M222.007172,239.691833 
	C221.580627,239.427475 221.130295,238.876694 220.899368,238.154465 
	C221.406967,238.457153 221.695175,238.931274 222.007172,239.691833 
z"/>
<path fill="#AC37EB" opacity="1.000000" stroke="none" 
	d="
M345.685730,224.065125 
	C345.763428,228.443924 345.459717,232.807968 345.114777,237.531189 
	C342.249084,239.100479 339.400818,241.318680 336.606415,241.252792 
	C333.466461,241.178787 330.375092,239.042542 327.467194,236.736008 
	C328.475494,236.491714 329.473175,236.101669 330.493805,236.027481 
	C335.919617,235.632980 339.941467,233.699142 341.401703,227.796280 
	C341.767822,226.316406 343.954437,225.286850 345.685730,224.065125 
z"/>
<path fill="#741DA3" opacity="1.000000" stroke="none" 
	d="
M324.065460,227.778961 
	C325.306061,220.435791 330.209686,225.482162 333.123199,223.948410 
	C333.480286,224.390121 333.837372,224.831818 334.194489,225.273529 
	C332.985748,226.698135 331.970612,229.014618 330.520935,229.329300 
	C328.557617,229.755478 326.261108,228.646530 324.065460,227.778961 
z"/>
<path fill="#AC37EB" opacity="1.000000" stroke="none" 
	d="
M326.718750,176.606781 
	C325.582153,178.842545 324.534363,180.699646 323.258087,182.798859 
	C322.022400,180.673126 321.015198,178.305313 320.015167,175.563126 
	C321.360229,173.236282 322.812683,171.349854 323.991821,169.305786 
	C324.665802,168.137421 331.968597,161.427658 333.000763,161.824631 
	C330.988892,166.827591 328.898224,171.527847 326.718750,176.606781 
z"/>
<path fill="#D466F1" opacity="1.000000" stroke="none" 
	d="
M333.696228,187.036926 
	C334.002594,185.477493 334.618805,183.919113 335.254761,182.069000 
	C335.661774,180.952911 336.049011,180.128555 336.711487,179.107788 
	C341.769684,180.588272 337.757477,183.232544 337.623718,185.794617 
	C336.363678,186.444611 335.184875,186.741302 333.696228,187.036926 
z"/>
<path fill="#AC37EB" opacity="1.000000" stroke="none" 
	d="
M272.869354,330.096771 
	C272.642670,330.218414 272.448120,330.379028 272.190063,330.739441 
	C266.834656,333.334869 261.574951,335.769531 256.315247,338.204163 
	C255.791061,337.898621 255.266861,337.593109 254.742661,337.287598 
	C255.256607,334.655945 255.770554,332.024323 256.590424,329.172607 
	C260.532288,332.169098 264.627533,330.276428 268.543884,329.900269 
	C269.910400,329.768982 271.214203,328.985229 272.757935,329.003632 
	C272.935913,329.704163 272.902649,329.900452 272.869354,330.096771 
z"/>
<path fill="#B04CE0" opacity="1.000000" stroke="none" 
	d="
M200.243286,199.534500 
	C200.382416,199.848969 200.266647,200.128677 200.239410,200.273499 
	C194.832993,206.021240 194.832993,206.021240 190.870911,198.894943 
	C190.716141,198.573013 190.675323,198.599808 190.675323,198.599808 
	C190.541885,198.343185 190.408463,198.086563 190.147614,197.415421 
	C191.788300,195.099716 193.556396,193.198532 195.656647,191.485779 
	C196.643997,192.547653 197.299194,193.421112 197.954391,194.294571 
	C198.670990,195.936386 199.387573,197.578217 200.243286,199.534500 
z"/>
<path fill="#601785" opacity="1.000000" stroke="none" 
	d="
M196.743988,187.773529 
	C196.218872,187.934875 195.752792,187.827026 195.286697,187.719177 
	C195.492340,187.339691 195.697998,186.960190 195.903641,186.580704 
	C196.203430,186.888580 196.503204,187.196442 196.743988,187.773529 
z"/>
<path fill="#601785" opacity="1.000000" stroke="none" 
	d="
M197.959503,193.913727 
	C197.299194,193.421112 196.643997,192.547653 195.959869,191.341354 
	C196.608826,191.849960 197.286713,192.691422 197.959503,193.913727 
z"/>
<path fill="#C940F6" opacity="1.000000" stroke="none" 
	d="
M273.044525,330.217346 
	C272.902649,329.900452 272.935913,329.704163 272.997925,329.209534 
	C273.090973,329.386749 273.155334,329.862335 273.044525,330.217346 
z"/>
<path fill="#B04CE0" opacity="1.000000" stroke="none" 
	d="
M277.876007,289.095642 
	C276.517426,296.163086 273.481384,302.269196 266.894470,306.782928 
	C266.003265,307.159698 265.562378,307.181580 265.121490,307.203461 
	C268.453033,299.873016 271.784546,292.542572 275.611572,284.121918 
	C276.642517,286.677368 277.111481,287.839783 277.876007,289.095642 
z"/>
<path fill="#601785" opacity="1.000000" stroke="none" 
	d="
M265.055176,307.377472 
	C265.562378,307.181580 266.003265,307.159698 266.774231,307.096954 
	C272.189880,307.268890 273.011444,308.422058 270.825104,312.867981 
	C269.674133,315.208527 268.269867,317.522583 266.508850,319.408661 
	C265.939728,320.018219 263.870361,319.227020 262.150696,319.015076 
	C262.830383,315.511261 263.846710,312.069000 264.826782,308.246765 
	C264.790558,307.866791 264.988831,307.551483 265.055176,307.377472 
z"/>
<path fill="#741DA3" opacity="1.000000" stroke="none" 
	d="
M190.655243,198.578064 
	C190.675323,198.599808 190.716141,198.573013 190.709167,198.546616 
	C190.702209,198.520218 190.635162,198.556335 190.655243,198.578064 
z"/>
</svg>